<?xml version="1.0" encoding="UTF-8"?><svg id="Calque_2" xmlns="http://www.w3.org/2000/svg" xmlns:xlink="http://www.w3.org/1999/xlink" viewBox="0 0 36.74 38.4"><defs><style>.cls-1{fill:url(#Dégradé_sans_nom_10-3);}.cls-2{fill:url(#Dégradé_sans_nom_10-2);}.cls-3{fill:url(#Dégradé_sans_nom_10-5);}.cls-4{fill:url(#Dégradé_sans_nom_10-4);}.cls-5{fill:url(#Dégradé_sans_nom_10);}</style><linearGradient id="Dégradé_sans_nom_10" x1="9.74" y1="14.93" x2="28.31" y2="14.93" gradientUnits="userSpaceOnUse"><stop offset="0" stop-color="#334c5c"/><stop offset="1" stop-color="#001f33"/></linearGradient><linearGradient id="Dégradé_sans_nom_10-2" x1="13.54" y1="8.02" x2="24.51" y2="8.02" xlink:href="#Dégradé_sans_nom_10"/><linearGradient id="Dégradé_sans_nom_10-3" x1="18.37" y1="2.6" x2="19.68" y2="2.6" xlink:href="#Dégradé_sans_nom_10"/><linearGradient id="Dégradé_sans_nom_10-4" x1="4.97" y1="26.03" x2="33.08" y2="26.03" xlink:href="#Dégradé_sans_nom_10"/><linearGradient id="Dégradé_sans_nom_10-5" x1="0" y1="36.29" x2="36.74" y2="36.29" xlink:href="#Dégradé_sans_nom_10"/></defs><g id="Calque_1-2"><path class="cls-5" d="M10.52,18.66c1.51-.59,7.07-3.55,7.07-3.55.39-.2.91-.31,1.45-.31s1.06.11,1.45.31c0,0,5.45,2.71,6.89,3.45.93.48.93-.46.93-.46v-5.59c0-.76-.52-1.38-1.15-1.38H10.89c-.63,0-1.15.62-1.15,1.38v5.69s0,.77.78.46ZM13.49,12.6c0-.22.15-.41.34-.41h10.4c.19,0,.34.18.34.41v.18c0,.22-.15.41-.34.41h-10.4c-.19,0-.34-.18-.34-.41v-.18Z"/><path class="cls-2" d="M14.59,10.08h8.87c.57,0,1.04-.41,1.05-.92v-2.25c0-.52-.47-.95-1.05-.95h-8.87c-.58,0-1.05.43-1.05.95v2.25c.02.51.48.92,1.05.92ZM22.27,7.19c.58,0,1.04.42,1.04.94s-.47.94-1.04.94-1.04-.42-1.04-.94.47-.94,1.04-.94ZM19,7.19c.58,0,1.04.42,1.04.94s-.47.94-1.04.94-1.04-.42-1.04-.94.47-.94,1.04-.94ZM15.74,7.19c.58,0,1.04.42,1.04.94s-.47.94-1.04.94-1.04-.42-1.04-.94.47-.94,1.04-.94Z"/><rect class="cls-1" x="18.37" width="1.31" height="5.2"/><path class="cls-4" d="M8.24,34.82c.02.06.04.11.07.17.21-.17.4-.36.61-.55.8-.77,1.72-1.65,3.5-1.65s2.7.88,3.5,1.65c.72.69,1.35,1.29,2.62,1.29s1.9-.6,2.62-1.29c.8-.77,1.72-1.65,3.5-1.65s2.7.88,3.51,1.65c.42.4.81.77,1.31,1.01.14-.19.25-.4.32-.63l3.19-10.12c.26-.84-.08-1.81-.77-2.15l-11.93-5.97c-.69-.34-1.82-.35-2.51,0l-11.96,5.97c-.69.34-1.04,1.31-.77,2.15l3.19,10.12Z"/><path class="cls-3" d="M30.62,38.4c-1.79,0-2.7-.88-3.51-1.65-.72-.69-1.35-1.29-2.62-1.29s-1.9.6-2.62,1.29c-.8.77-1.72,1.65-3.5,1.65s-2.7-.88-3.5-1.65c-.72-.69-1.35-1.29-2.62-1.29s-1.9.6-2.62,1.29c-.8.77-1.72,1.65-3.5,1.65s-2.7-.88-3.5-1.65c-.72-.69-1.35-1.29-2.62-1.29v-1.28c1.79,0,2.7.88,3.5,1.65.72.69,1.35,1.29,2.62,1.29s1.9-.6,2.62-1.29c.8-.77,1.72-1.65,3.5-1.65s2.7.88,3.5,1.65c.72.69,1.35,1.29,2.62,1.29s1.9-.6,2.62-1.29c.8-.77,1.72-1.65,3.5-1.65s2.7.88,3.51,1.65c.72.69,1.35,1.29,2.62,1.29s1.9-.6,2.62-1.29c.8-.77,1.72-1.65,3.51-1.65v1.28c-1.28,0-1.9.6-2.62,1.29-.8.77-1.72,1.65-3.51,1.65Z"/></g></svg>