<?xml version="1.0" encoding="UTF-8"?><svg id="Calque_2" xmlns="http://www.w3.org/2000/svg" xmlns:xlink="http://www.w3.org/1999/xlink" viewBox="0 0 30.49 41.92"><defs><style>.cls-1{fill:url(#Dégradé_sans_nom_61-3);}.cls-2{fill:url(#Dégradé_sans_nom_61);}.cls-3{fill:url(#Dégradé_sans_nom_61-2);}</style><linearGradient id="Dégradé_sans_nom_61" x1="0" y1="20.96" x2="29.97" y2="20.96" gradientUnits="userSpaceOnUse"><stop offset="0" stop-color="#eda01c"/><stop offset=".43" stop-color="#f7ba03"/><stop offset=".98" stop-color="#f0a715"/></linearGradient><linearGradient id="Dégradé_sans_nom_61-2" x1="22.38" y1="13.56" x2="30.49" y2="13.56" xlink:href="#Dégradé_sans_nom_61"/><linearGradient id="Dégradé_sans_nom_61-3" x1="8.06" y1="24.07" x2="13.96" y2="24.07" xlink:href="#Dégradé_sans_nom_61"/></defs><g id="Calque_1-2"><path class="cls-2" d="M22.91,15.79v2.26c.71,0,1.28.59,1.28,1.33v.13c0,.79.61,1.43,1.36,1.42h.07s0,.35,0,.35h.35s0,.32,0,.32h-.35s0,.29,0,.29h.35v.32s-.35,0-.35,0v.31h.51c0,.44,0,.92.01,1.4.04,4.58.11,12.25-.98,13.35-.07.07-.12.07-.13.07-.26,0-.44-.07-.58-.21-.56-.57-.53-2.43-.49-5.25.01-.88.03-1.87.03-2.96,0-2.85-.21-4.51-.67-5.4-.35-.67-.82-.86-1.3-.91V3.3c0-1.82-1.48-3.3-3.3-3.3H3.3C1.48,0,0,1.48,0,3.3v35.32c0,1.82,1.48,3.3,3.3,3.3h15.42c1.82,0,3.3-1.48,3.3-3.3v-15.34c.3.04.52.18.72.55.4.77.6,2.44.6,5.09,0,1.09-.01,2.08-.03,2.95-.05,3.2-.07,4.96.68,5.72.26.27.62.4,1.05.4.15,0,.38-.05.6-.27,1.19-1.2,1.23-6.96,1.17-13.82,0-.49,0-.96-.01-1.4h.49s0-.31,0-.31h-.35s0-.31,0-.31h.35s0-.3,0-.3h-.35s0-.32,0-.32h.35v-.35s.07,0,.07,0c.75,0,1.35-.64,1.35-1.44v-.13c0-.74.56-1.34,1.26-1.34v-2.26s-7.06.03-7.06.03ZM11.01,30.03c-3.55,0-6.43-2.88-6.43-6.43s2.88-6.43,6.43-6.43,6.43,2.88,6.43,6.43-2.88,6.43-6.43,6.43ZM19.34,12.1c0,1.09-.89,1.98-1.98,1.98H4.66c-1.09,0-1.98-.89-1.98-1.98v-6.6c0-1.09.89-1.98,1.98-1.98h12.71c1.09,0,1.98.89,1.98,1.98v6.6Z"/><path class="cls-3" d="M22.38,15.31h.52s0,.26,0,.26v-.25s7.05-.03,7.05-.03v-.02h.52s0-.58,0-.58h-2.09s0-2.74,0-2.74c0-.11-.04-.21-.12-.29-.08-.08-.18-.12-.29-.12h-.08c-.23,0-.41.18-.41.41v2.75s-2.11,0-2.11,0v-2.75c-.01-.23-.19-.41-.42-.41h-.08c-.11,0-.21.04-.29.12-.08.08-.12.18-.12.29v2.75s-2.08,0-2.08,0v.58Z"/><polygon class="cls-1" points="10.38 23.49 13.76 19.16 11.28 19.16 8.62 23.75 8.06 24.71 9.12 24.71 11.38 24.71 8.51 28.98 12.98 24.48 13.96 23.49 12.51 23.49 10.38 23.49"/></g></svg>