<?xml version="1.0" encoding="UTF-8"?><svg id="Calque_2" xmlns="http://www.w3.org/2000/svg" xmlns:xlink="http://www.w3.org/1999/xlink" viewBox="0 0 39.37 44.06"><defs><style>.cls-1{fill:url(#Dégradé_sans_nom_10-3);}.cls-1,.cls-2,.cls-3{fill-rule:evenodd;}.cls-2{fill:url(#Dégradé_sans_nom_10);}.cls-3{fill:url(#Dégradé_sans_nom_10-2);}</style><linearGradient id="Dégradé_sans_nom_10" x1="0" y1="22.03" x2="36.13" y2="22.03" gradientUnits="userSpaceOnUse"><stop offset="0" stop-color="#334c5c"/><stop offset="1" stop-color="#001f33"/></linearGradient><linearGradient id="Dégradé_sans_nom_10-2" x1="21.71" y1="40.56" x2="39.37" y2="40.56" xlink:href="#Dégradé_sans_nom_10"/><linearGradient id="Dégradé_sans_nom_10-3" x1="23.82" y1="34.56" x2="37.27" y2="34.56" xlink:href="#Dégradé_sans_nom_10"/></defs><g id="Calque_1-2"><path class="cls-2" d="M5.89,7.04c1.13.03,2.77.05,4.69.05l.33,2.45-.41-3.06c-.08-.57.32-1.03.89-1.03h.85l.25-3.89L4.36,6.57h.75c.31,0,.56.22.63.5.05-.02.1-.03.16-.02h0ZM27.78,24.95h.46v-14.41h-.53v-.72h-10.55c-.06.43-.42.75-.89.75h-.42v29.91h1.48v1.87h2.51v1.7H7.49v-1.7h2.51v-1.87h1.59V10.46c-.27-.13-.49-.37-.61-.65,0,0,0,.01,0,.02h-5.1c-.05,0-.11,0-.16-.03-.06.29-.32.51-.63.51H.64c-.35,0-.64-.29-.64-.64v-2.45c0-.35.29-.64.64-.64h3.56L12.49,1.47v-.05c-.27-.02-.49-.25-.49-.53h0c0-.29.24-.53.53-.53h.49c.1-.22.32-.37.58-.37s.48.15.58.37h.4c.29,0,.53.24.53.53h0c0,.16-.08.31-.19.41l16.93,5.7c1.08,0,1.73,0,1.75.03l2.44,2.13c.23.2.03.67-.46.67h-5.58v.72h-.71v14.41h.49c.11,0,.2.09.2.2v.73s-.56,1.14-.62,1.26h-.19c.05,1.14-2.19,2.23-.28,2.5.51,0,.22-1.21.7-1.41.19-.06.3.03.2.14-.1.09-.16.18-.12.28.12.29.09.62-.05,1-1.03,1.72-3.88-.44-1.17-2.22.06-.04.11-.19.1-.32h-.35c-.06-.14-.61-1.19-.61-1.22v-.73c0-.11.09-.2.2-.2h0ZM28.59,24.95h.32v-14.41h-.32v14.41h0ZM10.91,9.55s0,.02,0,.03c0,0,0-.02,0-.03h0ZM10.92,9.57s0,.02,0,.03c0,0,0-.02,0-.03h0ZM10.92,9.6s0,.02,0,.02c0,0,0-.02,0-.02h0ZM10.93,9.63s0,.02,0,.02c0,0,0-.02,0-.02h0ZM10.93,9.65s0,.02,0,.02c0,0,0-.02,0-.02h0ZM10.94,9.68s0,.02,0,.02c0,0,0-.02,0-.02h0ZM10.95,9.71s0,.01,0,.02c0,0,0-.01,0-.02h0ZM10.96,9.73s0,.01,0,.02c0,0,0-.01,0-.02h0ZM10.96,9.76s0,.01,0,.02c0,0,0-.01,0-.02h0ZM10.97,9.78s0,.01,0,.02c0,0,0-.01,0-.02h0ZM14.73,1.4l.02.19,8.5,5.46c3.39-.02,6.45-.05,8.34-.05L14.83,1.36s-.06.03-.1.04h0ZM23.11,7.05L14.76,1.69l.37,3.76h.44c.57,0,1.1.46,1.17,1.03l.08.6c2.1,0,4.25-.02,6.29-.04h0ZM17.15,9.55s0,.04,0,.05c0-.02,0-.03,0-.05h0ZM17.16,9.6s0,.02,0,.03c0,0,0-.02,0-.03h0ZM17.16,9.63s0,.02,0,.02c0,0,0-.02,0-.02h0ZM17.16,9.65s0,.02,0,.02c0,0,0-.02,0-.02h0ZM17.16,9.68s0,.01,0,.02c0,0,0-.01,0-.02h0ZM17.16,9.71s0,.01,0,.02c0,0,0-.01,0-.02h0ZM17.16,9.73s0,.01,0,.02c0,0,0-.01,0-.02h0ZM17.16,9.76s0,.01,0,.02c0,0,0-.01,0-.02h0ZM17.16,9.78s0,.01,0,.02c0,0,0-.01,0-.02h0ZM17.16,9.81s0,.01,0,.02c0,0,0-.01,0-.02h0ZM11.41,6h1.4l.12,2.58h-1.4l-.12-2.58h0ZM13.1,6h1.4l.12,2.58h-1.4l-.12-2.58h0ZM13.03,4.33h1.18l.23.99h-1.56s.15-.99.15-.99h0ZM13.01,2.92h1.18l.23.99h-1.56s.15-.99.15-.99h0ZM13.12,1.53h.97l.19.81h-1.28s.12-.81.12-.81h0ZM10.6,9.43h-1.79v-.04l1.79-1.69v1.73h0ZM8.81,8.96v-1.44h1.54l-1.54,1.44h0ZM6.63,9.43h1.79v-.04l-1.79-1.69v1.73h0ZM8.42,8.96v-1.44h-1.54l1.54,1.44h0ZM32.42,9.43h-1.79v-.04l1.79-1.69v1.73h0ZM30.63,8.96v-1.44h1.54l-1.54,1.44h0ZM23.69,9.43h-1.79v-.04l1.79-1.69v1.73h0ZM21.9,8.96v-1.44h1.54l-1.54,1.44h0ZM19.72,9.43h1.79v-.04l-1.79-1.69v1.73h0ZM21.51,8.96v-1.44h-1.54l1.54,1.44h0ZM19.33,9.43h-1.79v-.04l1.79-1.69v1.73h0ZM17.54,8.96v-1.44h1.54l-1.54,1.44h0ZM24.09,9.43h1.79v-.04l-1.79-1.69v1.73h0ZM25.88,8.96v-1.44h-1.54l1.54,1.44h0ZM28.29,9.43h1.79v-.04l-1.79-1.69v1.73h0ZM30.08,8.96v-1.44h-1.54l1.54,1.44h0ZM32.82,9.43h1.79v-.04l-1.79-1.69v1.73h0ZM28.03,9.42h-1.79v-.04l1.79-1.69v1.73h0ZM26.24,8.95v-1.44h1.54l-1.54,1.44h0ZM12.18,38.01h3.05v2.45h-.44l-2.6-2.45h0ZM13.98,40.47h-1.92v-1.96l1.92,1.96h0ZM12.13,34.47h3.04v.07l-3.04,2.87v-2.94h0ZM15.16,35.27v2.44h-2.61l2.61-2.44h0ZM12.13,34.13h3.04v-.07l-3.04-2.87v2.94h0ZM15.16,33.34v-2.44h-2.61l2.61,2.44h0ZM15.16,30.5h-3.04v-.07l3.04-2.87v2.94h0ZM12.13,29.7v-2.44h2.61l-2.61,2.44h0ZM12.13,26.86h3.04v-.07l-3.04-2.87v2.94h0ZM15.16,26.07v-2.44h-2.61l2.61,2.44h0ZM15.16,23.23h-3.04v-.07l3.04-2.87v2.94h0ZM12.13,22.43v-2.44h2.61l-2.61,2.44h0ZM12.13,19.59h3.04v-.07l-3.04-2.87v2.94h0ZM15.16,18.8v-2.44h-2.61l2.61,2.44h0ZM15.16,15.96h-3.04v-.07l3.04-2.87v2.94h0ZM12.13,15.16v-2.44h2.61l-2.61,2.44h0ZM12.13,12.32h3.04v-.07l-1.77-1.68h-1.26v1.74h0ZM15.16,11.53v-.95h-1.02l1.02.95h0Z"/><path class="cls-3" d="M21.71,37.14h17.67v6.84h-17.67v-6.84h0ZM22.46,37.64h16.16c.11,0,.19.09.19.19h0c0,.11-.09.19-.19.19h-16.16c-.11,0-.19-.09-.19-.19h0c0-.11.09-.19.19-.19h0ZM22.46,39h16.16c.11,0,.19.09.19.19h0c0,.11-.09.19-.19.19h-16.16c-.11,0-.19-.09-.19-.19h0c0-.11.09-.19.19-.19h0ZM22.46,40.36h16.16c.11,0,.19.09.19.19h0c0,.11-.09.19-.19.19h-16.16c-.11,0-.19-.09-.19-.19h0c0-.11.09-.19.19-.19h0ZM22.46,41.72h16.16c.11,0,.19.09.19.19h0c0,.11-.09.19-.19.19h-16.16c-.11,0-.19-.09-.19-.19h0c0-.11.09-.19.19-.19h0ZM22.46,43.08h16.16c.11,0,.19.09.19.19h0c0,.11-.09.19-.19.19h-16.16c-.11,0-.19-.09-.19-.19h0c0-.11.09-.19.19-.19h0Z"/><path class="cls-1" d="M23.82,31.96h13.45v5.21h-13.45v-5.21h0ZM24.39,32.35h12.31c.08,0,.15.07.15.15h0c0,.08-.07.15-.15.15h-12.31c-.08,0-.15-.07-.15-.15h0c0-.08.07-.15.15-.15h0ZM24.39,33.38h12.31c.08,0,.15.07.15.15h0c0,.08-.07.15-.15.15h-12.31c-.08,0-.15-.07-.15-.15h0c0-.08.07-.15.15-.15h0ZM24.39,34.42h12.31c.08,0,.15.07.15.15h0c0,.08-.07.15-.15.15h-12.31c-.08,0-.15-.07-.15-.15h0c0-.08.07-.15.15-.15h0ZM24.39,35.45h12.31c.08,0,.15.07.15.15h0c0,.08-.07.15-.15.15h-12.31c-.08,0-.15-.07-.15-.15h0c0-.08.07-.15.15-.15h0ZM24.39,36.48h12.31c.08,0,.15.07.15.15h0c0,.08-.07.15-.15.15h-12.31c-.08,0-.15-.07-.15-.15h0c0-.08.07-.15.15-.15h0Z"/></g></svg>