<?xml version="1.0" encoding="UTF-8"?><svg id="Calque_2" xmlns="http://www.w3.org/2000/svg" viewBox="0 0 34.07 52.09"><defs><style>.cls-1{fill:#c4d9eb;}.cls-2{fill:#788696;}.cls-3{fill:#2c3a4c;}.cls-4{fill:#b0c5d9;}.cls-5{fill:#626b79;}</style></defs><g id="Calque_1-2"><polygon class="cls-5" points="15.86 19.19 14.9 52.09 16.58 52.09 16.58 18.42 15.86 19.19"/><polygon class="cls-2" points="17.31 19.18 18.6 52.09 16.58 52.09 16.58 18.42 17.31 19.18"/><path class="cls-1" d="M14.61,17.79V0s4.03,3.92,4.03,17.79h-4.03Z"/><path class="cls-1" d="M18.66,17.79l15.4,8.89s-5.41,1.53-17.42-5.4l2.02-3.49Z"/><path class="cls-1" d="M16.65,21.28L0,28.68s1.95-5.28,14.62-10.9l2.02,3.49Z"/><polygon class="cls-1" points="14.62 17.79 18.66 17.79 16.65 21.28 14.62 17.79"/><path class="cls-4" d="M16.63,18.94l.02,2.34L0,28.68s6.58-5.51,16.63-9.74Z"/><path class="cls-4" d="M16.66,18.94l-2.04-1.15V0s3.39,8.12,2.04,18.94Z"/><path class="cls-4" d="M16.65,19.06l1.96-1.27,15.46,8.89s-8.46-1.41-17.42-7.62Z"/><circle class="cls-3" cx="16.63" cy="18.94" r=".81"/></g></svg>